<?xml version="1.0" encoding="utf-8"?>
<!-- Generator: Adobe Illustrator 24.1.1, SVG Export Plug-In . SVG Version: 6.00 Build 0)  -->
<svg version="1.1" id="Layer_1" xmlns="http://www.w3.org/2000/svg" xmlns:xlink="http://www.w3.org/1999/xlink" x="0px" y="0px"
	 viewBox="0 0 29 21" style="enable-background:new 0 0 29 21;" xml:space="preserve">
<style type="text/css">
	.st0{fill:#FFFFFF;}
</style>
<g id="Layer_1_1_">
	<path class="st0" d="M27.2,10.5c0,2.1-0.2,4.1-0.5,6.1c-0.3,1.1-1.1,1.9-2.2,2.2c-2,0.5-9.9,0.5-9.9,0.5s-7.9,0-9.9-0.5
		c-1.1-0.3-1.9-1.1-2.2-2.2c-0.4-2-0.5-4.1-0.5-6.1c0-2.1,0.2-4.1,0.5-6.1c0.3-1.1,1.1-1.9,2.2-2.3c2-0.5,9.9-0.5,9.9-0.5
		s7.9,0,9.9,0.5c1.1,0.3,1.9,1.2,2.2,2.3C27.1,6.4,27.3,8.5,27.2,10.5z M18.6,10.5L12,6.8v7.5L18.6,10.5z"/>
</g>
</svg>
