<svg xmlns="http://www.w3.org/2000/svg" width="398.41281mm" height="138.90562mm" viewBox="0 0 398.41281 138.90562"><g style="stroke-width:.201189"><g style="stroke-width:.201189"><path d="M0 0c-2.829-3.447-2.618-11.131-2.618-11.131s7.58 1.804 10.364 5.418c2.571 3.338 3.347 6.276 2.761 10.448C6.017 4.9 2.853 3.473 0 0m-1.547-14.805c-2.759-3.188-2.983-8.184-2.574-10.504.88-.078 7.923 2.155 11.025 5.92 2.973 3.604 2.757 4.996 2.762 8.469-4.547.876-8.185-.387-11.213-3.885m12.663-1.031c-1.966-2.115-2.645-7.019-2.643-6.921.098-.003 5.081.331 7.324 2.314 2.35 2.081 3.286 4.258 3.18 7.396-3.229.385-4.657.651-7.861-2.789m-48.411-12.089s2.84-2.816 6.42-1.81c5.187 1.455 5.497 5.572 5.497 5.572s-3 2.12-6.229 1.594c-3.233-.525-5.688-5.356-5.688-5.356m11.328 13.514s-1.624 4.803-4.087 6.511c-2.201 1.526-3.996 1.98-6.657 1.684.01-2.58.739-4.292 2.594-6.089 2.357-2.283 8.15-2.106 8.15-2.106m.279 10.044c-.979-3.434-1.363-5.573 1.499-9.038 2.856-3.467 8.409-4.609 8.409-4.609s.506 7.836-2.255 10.796c-2.764 2.962-4.475 3.061-7.653 2.851M-30.775-.31c-1.416 1.556-2.67 2.233-4.748 2.567-.343-2.366.132-4.059 1.651-5.903 1.457-1.772 5.206-2.735 5.206-2.735s-.422 4.217-2.109 6.071m6.648 6.423s1.217 2.674.776 4.332c-.495 1.867-1.561 2.997-3.391 3.603-1.067-1.592-1.23-3.101-.528-4.883.622-1.589 3.143-3.052 3.143-3.052m1.297-8.789s-.631 5.13-2.647 7.833-3.859 3.692-7.007 4.383c-.839-3.138-.767-5.241 1.509-8.195 2.905-3.778 8.145-4.021 8.145-4.021m2.151 13.426c-2.062-3.375-2.308-6.445-.817-10.108 1.405-3.448 7.012-6.475 7.012-6.475s.798 6.016-.541 9.461c-1.283 3.307-2.724 5.122-5.654 7.122m12.141-.726s1.893 2.066 1.687 3.602c-.175 1.289-1.898 2.743-1.898 2.743s-1.85-1.582-1.917-2.953c-.075-1.56 2.128-3.392 2.128-3.392m13.122-48.25c.021 2.384.148 5.727.268 6.997 1.16.33 2.453.636 3.759.914a175 175 0 0 1-1.707-7.489c-.949-4.805-.633-8.659-1.476-13.317-.725 4.433-.879 8.406-.844 12.895M-4.727.501C-3.216 8.979.563 15.525.563 15.525l-4.658.633s-2.046-4.033-4.021-9.524c-.656 1.083-2.051 2.401-3.312 3.978-1.567 1.96-1.734 2.819-3.893 5.124l-6.343.291s5.809-7.275 8.891-12.346c.854-1.407 1.487-2.152 2.111-3.653-.442-2.392-.806-4.686-1.087-6.144-1.111-5.736-1.937-9.894-2.562-14.314-2.417.962-4.854 1.473-7.985 2.307-5.4 1.437-8.479 2.137-13.972 3.18l-.211-4.446c1.07-.202 4.239-.211 7.628-1.265 1.978-.616 3.06-1.11 4.868-2.126-2.441-8.274-3.568-14.148-4.868-21.577-1.139-6.525-1.636-14.104-1.636-14.104l6.082-2.605s.492 10.219 1.265 16.709c.581 4.894.493 7.77 1.898 12.495.88 2.96 1.603 4.387 2.904 7.365 0 0 2.593-1.237 3.668-1.867-.335-6.374-.976-12.853-1.284-21.593-.185-5.277.21-13.869.21-13.869s3.439-.801 5.907-.886c1.756-.063 6.164.366 6.164.366s-2.669 13.805-2.967 26.88c.908.44 2.138 1.171 3.6 1.688 1.21.428 1.915.33 3.181.843-.057-1.628.279-9.471.321-14.115.044-5.182 1.998-15.156 1.998-15.156l7.625 2.616s-.213 3.867-.208 6.342c.001 4.883.007 7.682.841 12.495.79 4.552 2.553 9.794 3.162 11.419 2.099.34 3.813.843 3.813.843l.101 4.286c-4.978-.327-7.671-.619-12.469-1.639-4.957-1.051-8.091-1.43-12.176-3.069-.373 7.091.486 20.212 2.124 29.414m13.889 11.93s-4.404.253-6.422-1.394S-.492 4.313-.492 4.313 4.495 5.14 6.4 6.349c1.907 1.208 2.762 6.082 2.762 6.082m6.536-2.486c-.534.167-2.292.658-3.626.178-1.539-.557-2.849-3.039-2.898-3.039.05.049 2.481-.675 3.869-.084 1.425.604 2.489 2.413 2.655 2.945m1.301-18.444c1.5 2.213 1.92 4.034 1.538 6.681-2.998.412-5.447-.78-6.977-3.39-1.402-2.4 0-7.09.042-7.127.009-.018 3.947 1.7 5.397 3.836" style="fill:#008752;fill-opacity:1;fill-rule:nonzero;stroke:none;stroke-width:.201189" transform="matrix(1.75346 0 0 -1.75346 65.395 28.702)"/></g><g style="stroke-width:.201189"><path d="M0 0a9 9 0 0 0-1.61-.264c.098-.857.161-1.399.161-3.227 0-1.726-.098-4.257-.137-4.848a6 6 0 0 0-.151-1.072c.918.049 1.498.088 2.581.088.439 0 .969 0 1.501-.025.527-.014 1.057-.039 1.459-.102.214.58.301.819.492 1.132.024.039.049.078.049.116 0 .063-.035.088-.099.088-.038 0-.077-.014-.115-.025-.327-.189-.352-.203-.615-.291-.96-.278-2.571-.302-3.77-.327.025 2.13.053 4.345.113 6.476C-.103-1.262-.078-.896 0 0m-17.072-.292c-.605-.161-.756-.2-1.424-.365.101-1.396.228-3.199.643-5.013.152-.63.541-2.356 2.04-3.288a3.23 3.23 0 0 1 1.637-.478c.655 0 1.449.25 1.942.552.516.302 1.082.868 1.462 1.526.313.527.516 1.122.678 1.712.2.658.352 1.326.492 1.979.137.654.24 1.298.366 1.952.074.379.162.77.239 1.149-.618.049-.756.06-1.321.151-.152-1.452-.697-5.192-1.463-7.006-.215-.493-.479-.921-.629-1.009-.103-.064-.404-.137-.795-.137-1.463 0-2.483.956-2.949 1.877-.518 1.034-.718 2.911-.83 4.169-.102 1.122-.088 1.614-.088 2.229m-12.766-.464c.239-.063.483-.126.707-.214.391-.176 1.375-.742 1.993-1.726.391-.63.577-1.347.577-2.166 0-2.183-1.371-3.958-3.277-3.958-1.624 0-3.086 1.349-3.437 2.91a4.2 4.2 0 0 0-.103.897c0 .766.215 1.61.58 2.229.718 1.209 2.078 1.764 2.32 1.852.211.078.426.127.64.176m-4.799-4.232c0-1.955.616-2.725 1.122-3.214.932-.882 2.165-1.195 2.921-1.195.694 0 2.775.464 3.667 1.069 1.575 1.058 1.614 2.896 1.614 3.691 0 1.111-.151 2.194-1.146 3.175a3.9 3.9 0 0 1-2.848 1.16c-.681 0-2.545-.2-3.617-.868-.289-.176-.918-.605-1.336-1.614-.274-.693-.377-1.463-.377-2.204m-6.943-3.481-.15.141c-.556-.356-.883-.356-2.107-.366h-1.638l.151 3.618h1.551c.657 0 .794-.014 1.311-.078l.805.96-.099.098c-.629-.2-.97-.253-1.842-.253h-1.698l.05 3.329c.341 0 .692.015 1.033.015.492 0 .918-.015 1.512-.053l.78.58-.063.176c-.454-.102-.882-.19-2.229-.19-.566 0-1.009.014-1.41.039-.418.01-.78.038-1.198.074.116-.528.178-.841.228-1.6.025-.566.038-1.132.038-1.712 0-1.372-.052-2.584-.15-3.793-.078-.844-.116-1.2-.239-1.941.576.077 1.019.151 2.278.151.517 0 1.082 0 1.561-.035.292-.028.415-.064.604-.116zm-18.13-.591c.492-.239.956-.453 1.547-.453 1.175 0 2.637.882 3.379 1.965.214.302.327.566.327.985 0 .565-.239 1.121-.58 1.462-.289.288-.489.376-1.737.879-.594.243-1.058.429-1.336 1.121a1.8 1.8 0 0 0-.126.633c0 .517.277 1.122.818 1.488.254.175.278.186.654.186.721 0 1.35-.327 1.639-.478l.882.516c-.556.341-1.093.542-1.751.542-.615 0-1.135-.215-1.561-.401-.443-.204-.935-.443-1.311-.819-.44-.429-.717-1.034-.717-1.589 0-.531.249-1.059.591-1.399.341-.328.868-.556 1.437-.781.946-.38 1.463-.58 1.737-1.248q.138-.344.14-.745c0-.44-.14-.805-.253-1.132a2.4 2.4 0 0 0-.833-.366 2.3 2.3 0 0 0-.576-.088c-.492 0-.984.239-1.399.454z" style="fill:#455560;fill-opacity:1;fill-rule:nonzero;stroke:none;stroke-width:.201189" transform="matrix(1.75346 0 0 -1.75346 307.493 122.225)"/></g><g style="stroke-width:.201189"><path d="M0 0c.4-.956.552-1.336 1.22-2.784C.893-2.896.679-2.96-.116-2.96c-.363 0-.83 0-1.196.024-.239.015-.337.025-.337.152 0 .063.123.292.175.39C-1.02-1.575-.542-.766 0 0m-4.535-7.657c.316.63.389.795 1.311 2.331.201.351.414.703.629 1.069.503.872.528.872 1.02.882H.088c.365 0 .58.014.766.039.19.024.341.077.555.137.454-.932 1.224-2.405 1.688-3.35.39-.795.404-.844.492-1.185.605.204.756.239 1.35.316-.393.883-.544 1.171-1.891 3.829C1.575-.664.868.96.844 1.048a.9.9 0 0 0-.088.351 11 11 0 0 0-1.097-.098C-.932-.162-1.79-1.498-2.644-2.819c-.366-.566-.72-1.122-1.097-1.677-.302-.429-.605-.855-.897-1.297A23 23 0 0 1-5.77-7.607Zm-9.956 8.694.554-.028c.011-1.121.011-2.077.011-3.136 0-1.951-.024-3.906-.035-5.857.626.123.742.151 1.283.225-.013.58-.028 1.034-.028 1.551 0 .112.053 4.257.063 4.472.029.984.103 1.803.18 2.657 1.108-.06 2-.239 2.619-1.258.088-.165.176-.327.24-.507a3 3 0 0 0 .09-.351c0-.264-.116-.668-.228-.907a2.37 2.37 0 0 0-1.589-1.287c-.313-.074-.644-.088-1.02-.088l.352-.4c.594.063 1.059.112 1.789.527 1.41.794 1.892 1.93 1.892 2.661 0 .517-.229 1.069-.605 1.435-.707.703-1.716.703-2.232.703-1.308 0-2.419-.035-3.323-.06zm-10.485-8.381c.49-.239.957-.453 1.547-.453 1.175 0 2.637.882 3.379 1.965.215.302.327.566.327.984 0 .566-.239 1.121-.58 1.459-.288.292-.489.38-1.737.883-.594.242-1.058.428-1.336 1.121a1.8 1.8 0 0 0-.126.633c0 .517.277 1.121.819 1.487.253.176.278.186.654.186.72 0 1.35-.327 1.638-.478l.882.517c-.554.341-1.096.541-1.75.541-.619 0-1.136-.214-1.561-.404-.443-.201-.935-.439-1.312-.816-.442-.428-.717-1.033-.717-1.589 0-.53.25-1.058.591-1.399.341-.327.868-.555 1.438-.78.942-.38 1.463-.58 1.74-1.248.088-.229.138-.478.138-.745 0-.44-.138-.806-.254-1.133a2.4 2.4 0 0 0-.833-.366 2.1 2.1 0 0 0-.58-.087c-.489 0-.981.239-1.396.453zm-14.652 3.287c.59-.956.78-1.234 1.624-2.292a3 3 0 0 0-.351-.341c-.341 0-.644.014-1.097.204-.606.263-.756.605-.795.693a.9.9 0 0 0-.088.414c0 .566.4.995.707 1.322m.502 1.15c-.189.365-.39.756-.39 1.272 0 .795.605 1.01.654 1.01.127 0 .366-.317.366-.834 0-.731-.314-1.097-.63-1.448m.264-.415c.166.2.204.239.555.605.226.225.454.488.591.843.053.099.112.278.112.478 0 .503-.351.795-.664 1.02-.14.112-.379.288-.542.288-.228 0-.695-.351-.934-.552-.464-.351-.703-.604-.703-1.16 0-.692.425-1.473.629-1.825-1.108-1.135-1.385-1.662-1.385-2.471 0-.566.126-.819 1.268-1.297.292-.127.824-.316.936-.316.225 0 .717.428.77.467.175.151.337.316.502.478.328-.327.415-.429.831-.819.239.327.316.443.628.78-.365.342-.463.429-.791.795.288.415.376.541.605.985-.291.01-.341.01-.605.038-.151-.253-.204-.33-.354-.556-.654.83-.855 1.146-1.449 2.219M-56.83.861c.53.011 1.213.025 1.74-.516.292-.292.569-.847.569-1.312 0-1.047-1.248-1.789-1.715-2.028-.102-.049-.264-.141-.264-.292 0-.137.123-.186.2-.214.138-.05.279-.088.415-.138 1.15-.443 1.551-1.36 1.551-1.891 0-.468-.25-.858-.742-1.136-.594-.337-1.301-.4-1.853-.453.035 4.465.049 5.484.099 7.98m-2.113.022.791.013-.049-8.124-.795-.014v-.394c1.979.029 3.477.039 4.813.847.693.405 1.132.922 1.132 1.576 0 .668-.464 1.409-1.23 1.94-.341.225-.668.366-.971.503.894.418 2.015 1.047 2.015 2.18 0 .959-.756 1.486-1.097 1.662-.401.19-.819.254-1.94.254-1.098 0-1.738-.039-2.698-.088zm-12.843.541c-.605-.162-.756-.2-1.42-.365.099-1.396.225-3.2.64-5.014.151-.629.542-2.356 2.039-3.287a3.25 3.25 0 0 1 1.638-.478c.658 0 1.452.249 1.941.552.516.302 1.086.868 1.463 1.525.316.528.516 1.122.681 1.713.2.654.352 1.322.489 1.979.14.654.239 1.297.366 1.951.077.38.165.77.239 1.146-.615.053-.756.063-1.322.151-.152-1.448-.693-5.189-1.463-7.003-.214-.492-.478-.921-.629-1.009-.102-.063-.404-.137-.795-.137-1.459 0-2.481.956-2.945 1.877-.518 1.034-.721 2.912-.834 4.17-.102 1.121-.088 1.614-.088 2.229m-9.188.292c-.641-.152-.832-.19-1.612-.267.103-.855.165-1.396.165-3.224 0-1.726-.101-4.258-.139-4.848a5.6 5.6 0 0 0-.15-1.072c.919.049 1.498.088 2.582.088.44 0 .97 0 1.497-.025.531-.014 1.059-.039 1.463-.102.214.58.302.819.492 1.132.025.039.049.077.049.116 0 .06-.038.088-.102.088a.4.4 0 0 1-.112-.028c-.327-.187-.351-.201-.615-.289-.96-.277-2.574-.302-3.77-.327.026 2.131.05 4.346.114 6.476a38 38 0 0 0 .138 2.282m-7.195-7.46c-.705-.567-1.497-1.108-2.91-1.108-2.746 0-3.614 2.015-3.614 3.667 0 1.374.541 2.496 1.145 3.101.894.868 2.307.995 2.483.995.541 0 1.134-.229 1.487-.415.429-.215.668-.418.92-.633l.792.745c-.152.162-.303.341-.679.528a3.8 3.8 0 0 1-1.589.365c-.365 0-.617-.077-.931-.151a43 43 0 0 1-2.268-.678c-.96-.303-1.097-.391-1.448-.746-.744-.756-1.223-1.346-1.223-3.315 0-1.487.291-2.707 1.574-3.579.844-.566 1.801-.766 2.369-.766.264 0 1.372.077 2.634.692.705.352 1.082.693 1.487 1.034z" style="fill:#455560;fill-opacity:1;fill-rule:nonzero;stroke:none;stroke-width:.201189" transform="matrix(1.75346 0 0 -1.75346 338.728 84.406)"/></g><g style="stroke-width:.201189"><path d="m0 0-.271.248c-.988-.63-1.575-.63-3.758-.654h-2.925l.27 6.462h2.768c1.17 0 1.416-.023 2.341-.136l1.441 1.707-.182.183c-1.125-.362-1.734-.454-3.284-.454h-3.038l.088 5.943c.609 0 1.241.023 1.846.023.879 0 1.645-.023 2.7-.091l1.396 1.034-.113.316c-.808-.181-1.575-.338-3.983-.338-1.013 0-1.8.022-2.517.067-.742.021-1.396.067-2.137.134.204-.943.316-1.505.404-2.855.046-1.012.07-2.025.07-3.062 0-2.45-.092-4.611-.27-6.771-.134-1.508-.204-2.138-.43-3.463 1.037.134 1.821.269 4.071.269.921 0 1.934 0 2.788-.069.521-.044.746-.112 1.083-.2zm-12.195 0-.272.248c-.987-.63-1.574-.63-3.758-.654h-2.924l.27 6.462h2.771c1.167 0 1.417-.023 2.337-.136l1.442 1.707-.18.183c-1.125-.362-1.733-.454-3.287-.454h-3.037l.091 5.943c.608 0 1.238.023 1.843.023.878 0 1.645-.023 2.7-.091l1.395 1.034-.112.316c-.809-.181-1.575-.338-3.983-.338-1.009 0-1.8.022-2.518.067-.741.021-1.392.067-2.138.134.204-.943.317-1.505.409-2.855a79.907 79.907 0 0 0-.205-9.833c-.133-1.508-.204-2.138-.428-3.463 1.037.134 1.824.269 4.071.269.925 0 1.934 0 2.791-.069.517-.044.742-.112 1.079-.2zm-24.726 13.706h1.283c.046-1.238.091-2.161.091-3.555 0-1.8-.066-4.299-.133-6.256-.07-2.475-.116-3.194-.362-5.512l2.538.18c.046 1.664.07 3.307.092 4.972.02 2.004.02 3.983.066 5.962.067 2.25.158 3.017.317 4.254.988 0 2.316 0 3.445-1.125.875-.9 1.191-2.162 1.191-3.375 0-.654-.628-1.6-1.191-2.183-1.083-1.148-2.387-1.417-3.491-1.667 1.104-1.191 1.87-2.025 4.458-4.387a81 81 0 0 1 3.596-3.058l2.071 1.439c-2.499 1.665-3.755 2.79-7.421 6.277.899.429 1.508.721 2.517 1.779 1.663 1.732 1.955 3.038 1.955 3.846 0 .63-.176 1.148-.718 1.711-1.529 1.573-4.184 1.573-4.995 1.573-.833 0-1.642-.046-2.454-.092-.963-.066-1.91-.112-2.855-.179zm-14.509-.025c.829-.18 1.392-.313 2.675-.313 1.237 0 1.892 0 3.196-.067.021-1.687.045-3.354.045-5.018.022-.811-.024-4.432-.024-5.176 0-2.543 0-2.835-.112-4.68 1.079.024 1.417 0 2.517-.088a75 75 0 0 0-.092 3.599c0 .809.046 4.409.046 5.151 0 3.15 0 3.488.046 6.121 2.633-.046 3.174-.022 4.817.158l.875 1.325-.067.067c-1.441-.404-3.759-.45-6.884-.45-1.304 0-2.675 0-4.113.113-1.016.066-1.375.133-2.183.314zM-73.483-1.393c0 2.361.087 4.815.2 7.222.046 1.71.092 2.473.092 3.531 0 .629-.022 1.284-.022 1.935.492-.743.517-.764 2.588-2.835 2.183-2.225 4.387-4.408 6.592-6.613 2.362-2.295 2.362-2.317 3.599-3.645.767.518 1.059.72 1.842 1.192-.179.293-.266.63-.312.968-.159 1.148-.18 3.981-.18 4.86 0 1.507.043 3.013.088 4.499.07 2.135.092 2.473.116 4.904a20 20 0 0 0-2.046-.519c.113-2.137.134-2.879.134-6.883V5.131c0-1.665.021-2.092.158-3.442-1.395 1.462-1.596 1.665-3.399 3.421-1.283 1.213-4.434 4.342-5.288 5.217-2.204 2.25-2.971 3.329-3.692 4.342-1.121-.201-1.346-.225-2.246-.269.179-1.575.246-3.352.246-5.107 0-2.047-.313-9.358-.358-10.191-.022-.359-.067-.719-.092-1.08zM-85.904 12.06c.72-1.71.991-2.385 2.183-4.973-.584-.202-.967-.315-2.383-.315-.655 0-1.488 0-2.138.046-.429.021-.609.044-.609.269 0 .113.226.519.317.698.808 1.463 1.663 2.903 2.63 4.275m-8.097-13.677c.563 1.125.696 1.418 2.338 4.162.362.631.742 1.261 1.125 1.913.9 1.552.946 1.552 1.821 1.575h2.971c.654 0 1.037.023 1.371.067.338.045.608.135.991.247.809-1.664 2.184-4.296 3.017-5.983.696-1.419.717-1.509.875-2.117 1.08.36 1.35.429 2.408.563-.699 1.575-.967 2.091-3.375 6.841-2.633 5.217-3.892 8.118-3.937 8.276a1.8 1.8 0 0 0-.159.629 19 19 0 0 0-1.954-.179c-1.058-2.608-2.588-4.992-4.117-7.355-.653-1.012-1.283-2.002-1.958-2.992a83 83 0 0 1-1.596-2.316 37 37 0 0 1-2.025-3.242zm-5.769 7.264c1.442 1.374 2.679 2.567 5.312 5.896a44 44 0 0 1 2.18 3.013l-.042.113c-.879-.088-1.104-.088-1.912-.134-.317-.742-.497-1.192-1.509-2.61a37 37 0 0 0-2.7-3.329c-.788-.832-1.104-1.08-1.846-1.688-1.1 1.125-1.504 1.552-3.888 4.477-1.263 1.553-1.645 2.092-2.883 3.871-1.1-.519-1.392-.631-2.563-.969.696-1.056.764-1.125 1.913-2.452.471-.563 2.475-3.015 2.879-3.508 1.125-1.329 1.687-1.913 2.722-2.971v-2.25a93 93 0 0 1-.043-2.451V-1.73c1.1.069 1.346.09 2.493.135-.088 1.326-.088 1.732-.113 3.082zm-25.762-7.04c0 2.361.091 4.815.204 7.222.045 1.71.089 2.473.089 3.531 0 .629-.023 1.284-.023 1.935.496-.743.517-.764 2.588-2.835 2.183-2.225 4.389-4.408 6.595-6.613 2.362-2.295 2.362-2.317 3.6-3.645.763.518 1.055.72 1.842 1.192-.179.293-.27.63-.316.968-.154 1.148-.18 3.981-.18 4.86 0 1.507.046 3.013.092 4.499.066 2.135.088 2.473.112 4.904a20 20 0 0 0-2.046-.519c.113-2.137.137-2.879.137-6.883V5.131c0-1.665.022-2.092.156-3.442-1.393 1.462-1.597 1.665-3.397 3.421-1.283 1.213-4.433 4.342-5.288 5.217-2.207 2.25-2.973 3.329-3.691 4.342-1.125-.201-1.35-.225-2.249-.269.182-1.575.248-3.352.248-5.107 0-2.047-.316-9.358-.36-10.191-.022-.359-.068-.719-.089-1.08zm-12.417 13.453c.719-1.71.988-2.385 2.182-4.973-.587-.202-.968-.315-2.384-.315-.654 0-1.486 0-2.138.046-.429.021-.609.044-.609.269 0 .113.225.519.316.698.809 1.463 1.664 2.903 2.633 4.275m-8.098-13.677c.563 1.125.695 1.418 2.336 4.162.363.631.744 1.261 1.125 1.913.9 1.552.947 1.552 1.824 1.575h2.969c.654 0 1.035.023 1.373.067.337.045.607.135.991.247.809-1.664 2.18-4.296 3.013-5.983.698-1.419.721-1.509.877-2.117 1.081.36 1.35.429 2.406.563-.695 1.575-.967 2.091-3.372 6.841-2.632 5.217-3.893 8.118-3.936 8.276a1.8 1.8 0 0 0-.161.629 19 19 0 0 0-1.955-.179c-1.056-2.608-2.588-4.992-4.115-7.355-.654-1.012-1.285-2.002-1.96-2.992a88 88 0 0 1-1.597-2.316 38 38 0 0 1-2.024-3.242zm-9.701 15.21c.947.021 2.161.044 3.106-.923.52-.519 1.014-1.506 1.014-2.339 0-1.867-2.228-3.196-3.06-3.623-.182-.09-.476-.248-.476-.519 0-.246.225-.337.363-.381.246-.09.493-.157.74-.248 2.051-.789 2.771-2.433 2.771-3.377 0-.833-.45-1.531-1.329-2.027-1.057-.606-2.32-.719-3.31-.808.069 7.966.089 9.791.181 14.245m-3.778.042 1.418.021-.089-14.509-1.418-.021v-.703c3.529.046 6.209.069 8.594 1.512 1.236.72 2.023 1.642 2.023 2.812 0 1.192-.832 2.519-2.203 3.463-.608.406-1.194.654-1.735.9 1.601.745 3.6 1.87 3.6 3.895 0 1.709-1.35 2.655-1.955 2.968-.719.337-1.463.45-3.467.45-1.956 0-3.101-.067-4.812-.158z" style="fill:#455560;fill-opacity:1;fill-rule:nonzero;stroke:none;stroke-width:.201189" transform="matrix(1.75346 0 0 -1.75346 398.413 55.133)"/></g><g style="stroke-width:.201189"><path d="M0 0h20.127m-158.173 0h20.126" style="fill:none;stroke:#455560;stroke-width:.0502973;stroke-linecap:butt;stroke-linejoin:miter;stroke-miterlimit:3.864;stroke-dasharray:none;stroke-opacity:1" transform="matrix(1.75346 0 0 -1.75346 361.796 90.015)"/></g></g></svg>